<svg version="1.0" xmlns="http://www.w3.org/2000/svg" width="1706.667" fill="#f5c60a" height="1297.333" viewBox="0 0 1280 973"><path d="M956 5.7c0 .5 1.1 7 2.5 14.7 1.4 7.6 2.2 14.9 1.9 16.2-1.5 5.9 9.4 43.8 17.4 60.4 14.2 29.7 37.6 50.9 63.2 57.3 14.7 3.7 21.3 3.1 26.5-2.3l3-3.1.3-15.3c.4-17.3-1.1-27.8-5.8-40.7-11.8-32.4-44-59.8-98-83.4-11.2-4.9-11-4.8-11-3.8zM303.5 15.4c-61.5 29.9-86.2 56.8-93 101.6-2.4 15.3-1.7 34 1.2 34 .8 0 1.2.4.9.8-.3.5.9 1.7 2.7 2.8 6.9 4.1 26.4.9 40.5-6.7 18.9-10.1 35.4-28 45.8-49.5 4.8-9.9 11.6-28.6 11-30.1-.3-.7 0-1.3.5-1.3.6 0 .9-.9.6-2-.3-1.2-.1-1.8.5-1.4.6.4.8-.1.3-1.5-.4-1.3-.2-2.1.5-2.1s.9-.8.5-2.1c-.5-1.4-.4-1.9.4-1.5.6.4.9.1.5-.7-.3-.8.2-4.3 1.1-7.8 1.9-7.3 7.4-37.2 7-37.7-.2-.2-1.4.2-2.7.8-1.9 1-2.1 1-1-.1 1.3-1.4 1.6-3.9.5-3.8-.5 0-8.4 3.7-17.8 8.3zM153.3 52.7c-17.3 33.8-24.5 56.2-26.8 83.3-.5 6.6.7 22.7 2.1 28.5.4 1.7.3 1.7-.6.5-1.2-1.7-.7 2.3 1.6 12.9 4 18 16.3 38.9 25.7 43.8 6.3 3.2 14.9-1.2 23.2-11.8 7.9-10 16.4-31.9 16.8-43.1.1-2.5.4-4.5.7-4.3.8.5 1.5-10.9 1.4-25 0-17.6-3.9-35.4-12.6-57.5-3.7-9.4-20.9-45-21.8-45-.3 0-4.7 8-9.7 17.7zM1109.7 49.5c-19.8 39.7-26.7 63.2-27.1 92.5 0 8.2.2 14.3.7 13.7.5-.7.6.2.2 1.9-.7 3.9 2.4 19.4 6 29.4 3.9 10.8 7.1 16.7 12.8 23.7 7.6 9.4 14.3 13.4 20.3 11.9 6.5-1.7 17.4-16 23.3-30.6 3.7-9.3 6.4-20.7 5.6-23.8-.3-1.3-.2-2.1.2-1.9.4.3.9-1.1.9-3.1.1-2.1.5-9.1.9-15.7 1.2-18.9-2-36.6-11.1-61.4-3.4-9.2-20.7-45.5-23.7-49.6-1.4-1.8-2-.9-9 13zM286.5 138.4c-33.9 11.3-51.5 20-71 35.1-25.7 19.9-38.6 44.2-40.2 75.7-.6 11.1-.5 11.8 1.3 11.9 1 0 1.4.3.8.5-1.7.7-.5 5 2.1 7.8 3.4 3.6 9.5 4.9 19.5 4.1 4.7-.4 9.4-1.2 10.5-1.7 1.8-.9 1.8-.9.5.4-.8.8-5.3 4.4-10 8-35.4 27.3-54.4 53.4-59.9 82.8-2.3 12-1.4 48.6 1.3 53.8 2.1 4 6.6 6.4 12.2 6.4s9.8-1.4 20.7-6.9c20.7-10.2 29.7-18.7 38.7-36.4 3.4-6.6 7.3-15 8.6-18.7 3.9-10.3 8.6-31 7.8-34.5-.3-1.6-.2-2.7.2-2.4.5.3.9-1.1 1-3.1 0-2.1.8-10.1 1.7-17.9.9-7.8 1.7-18.8 1.8-24.5.1-11 1-19.1 2.1-18.6 1.3.6 13.7-9.3 20.5-16.6 11.5-12.1 21-27.4 29.6-47.6 7.1-16.8 11-29.5 10.4-33.6-.4-2.4.6-7.4 3.2-16.4 2.1-7.2 3.5-13 3.2-12.9-.3 0-7.8 2.4-16.6 5.3z"/><path d="M977 133.9c0 .5.7 2.8 1.5 5.1 3 8.5 6.3 22 5.3 21.4-2.4-1.5.1 10.5 4.7 22.6 10.1 26.8 21.4 46.6 34.6 60.5 7.4 7.8 19.4 17.5 21.7 17.5.9 0 1.2 2.5 1.2 9.3 0 5.1.5 15.4 1.1 22.8.7 7.3 1.2 15.8 1.3 18.6 0 2.9.4 5.3.9 5.3s.6 1.3.2 2.9c-.8 3.7 3.7 25.8 7.6 37.4 1.6 4.9 5.9 14.8 9.5 21.9 7.3 14.4 13 21.2 24.1 28.6 6.8 4.6 21.8 12.3 27.6 14.2 8.7 2.8 17.3.6 20.3-5.1 1.8-3.6 2.9-18.5 2.8-38.4-.1-16.3-2.4-25.8-9.9-41-10.8-22-24.4-36.6-61-65.4-2.3-1.8-2.4-2-.4-.8 3.6 2.1 18.4 3.2 23.8 1.7 2.4-.6 5.3-2.2 6.6-3.6 2.5-2.7 3.8-7.4 2.1-7.5-.6 0 0-.5 1.3-1 2.3-.9 2.3-1.1 1.6-10.7-3-42.4-23.1-70.4-67.6-94.1-11.4-6-24.6-11.3-43.9-17.5-8-2.6-15.1-4.9-15.7-5.1-.7-.2-1.3-.1-1.3.4zM1180.8 181.7c-28.6 36-42.5 62.2-46.8 88.2-2 11.8-.7 40.2 2.4 52.1 5.2 20.8 14.1 34 22.6 34 9.8-.1 28.4-19.4 37.1-38.5 3.7-8.2 8.1-24.3 8.4-31 .1-2.8.8-10.4 1.4-17 2.3-22.8-1.1-47.9-11.1-83-2.2-7.7-4.3-14.3-4.7-14.8-.4-.4-4.6 4.1-9.3 10zM90.8 191.2c-1.4 4-3.1 9-3.8 11.1-.6 2-1.5 3.5-2 3.2-.4-.3-2 4.6-3.5 10.8-12 50.2-9 85.7 9.7 114.2 5.1 7.8 19.3 23 20.6 22.1.5-.3 3.7 1.5 7.2 4 3.5 2.4 6.9 4.4 7.5 4.4 1.8 0 11.6-15.7 15.5-24.9 6.7-15.7 7.5-19.8 7.5-38.1-.1-17.4-.7-21.4-6.1-36.3-4.7-13.4-15.5-32.7-26.7-48.2-4.6-6.4-19.4-25.2-22.2-28.3-1-1.1-1.7.2-3.7 6zM36.5 320.9c.4 1.3.2 2.8-.5 3.6-2.5 3.1 1.9 41 7.5 64.3 1.4 5.7 2.2 10.9 1.8 11.4-.3.7-.1.8.6.4.9-.6 1 0 .5 2-.5 1.9-.4 2.5.4 2 .7-.4 1-.2.6.7-1.2 3.3 9.7 28.1 17.4 39.4 17.3 25.5 51.2 45.2 62.5 36.3 2.9-2.3 6.3-10.2 5.2-12.1-.6-.8-.4-1 .5-.4 1 .6 1.2.2.7-1.5-.3-1.3 0-6.6.8-11.9 4.9-32.2-3.9-59.6-27.4-85.2-12.1-13.3-33-29.2-56.2-42.9-14.7-8.7-15.4-9-14.4-6.1zM1228.8 327.4c-25.8 15.7-38.9 25.7-53.3 40.7-13.8 14.3-22.8 28.9-27.6 44.9-2 6.7-2.3 9.8-2.4 28-.2 33.3 2.8 42 14.6 42 15.6 0 41.1-17.6 54.9-38 5.4-8 11.6-20.5 15.1-30.7 4.3-12.4 8.2-29.1 7.4-32.2-.4-2-.3-2.3.5-1.1.9 1.1 1 .6.5-2.3s-.3-3.7.5-3.2c.9.5 1 .1.6-1.3-.4-1.1 0-6.4.9-11.9.8-5.4 1.9-16.3 2.5-24.3 1.2-17.5 1.2-19 .3-19-.5 0-7 3.8-14.5 8.4zM216.4 385.2c-28.7 29.5-45.5 55.8-53.7 84.3-2.6 9-3.1 40.7-1 55.4 2.2 15.2 3.9 20 8.9 25 4.3 4.3 4.4 4.3 10.3 3.9 4.9-.3 7-1.2 12.7-4.9 8.6-5.6 20.8-17.5 26.4-25.8 2.4-3.5 5.8-9.9 7.6-14.1 3.6-8.3 8.9-28.3 8-30.5-.2-.7.2-5.8 1.1-11.2 1.1-7.3 1.3-14.3.9-27.8-.5-18.7-1.7-28.2-6.4-52.3l-2.8-14.3-12 12.3zM1052.1 373.1c-.1.3-1.4 7.1-3 15-6 29.8-7.6 50.8-5.8 78.5.8 13.2 1.7 19.1 4.6 29.9 5.9 21.4 19.1 39.4 38.4 52.3 5.7 3.8 7.8 4.7 12.6 5 5.4.4 6 .2 9.6-2.9 2.1-1.9 4.6-5.2 5.6-7.4 2-4.5 4.9-20.2 4.7-25.5 0-1.9.5-8.7 1.2-15 1.1-9.9 1-13-.3-22.2-4.6-30.9-22.1-60.9-56.1-96.3-6.3-6.6-11.5-11.7-11.5-11.4z"/><path d="M24.2 471.6c3.6 7.9 4.6 10.9 3.7 11.4-3.4 2.1 2.1 15.5 14.2 34.7 16.1 25.7 35.6 45.5 54.3 55.2 6.4 3.4 5.8 3.6-5.9 2.1-7.4-.9-49.6-3.2-50.1-2.7-.2.1 1.8 3.4 4.2 7.2 5.6 8.8 7.9 12.9 6.6 12.1-.6-.3-1.3.7-1.7 2.4-.9 4.1 2.6 11.4 11 22.5 20.5 27.3 42.4 46.9 61.2 55.1 10.7 4.6 16 6.4 19.2 6.4 1.9 0 3.2.2 3 .4-.2.3-9 1.9-19.4 3.6-10.4 1.7-19.2 3.3-19.4 3.6-.3.3 2.6 3.6 6.4 7.4 6.3 6.4 6.7 7 5.1 8.5-4.1 4.2.2 11.5 14.2 24 29.4 26.4 53.3 39.6 80.2 44 6.5 1.1 12.7 1.6 16.9 1.2l6.6-.6-4.5 1.6c-11.2 3.8-34.6 12.6-35.2 13.2-.4.4 2.7 3.1 6.9 6.1 4.9 3.6 7 5.6 5.9 5.8-2.5.5-3.1 5-1.2 8.7 2 3.7 7.6 8 19.6 15.2 20.6 12.3 41.6 21.2 59 24.9 11.8 2.5 32.8 2.5 43.4 0 15.4-3.5 30.9-11.3 35.2-17.6 2.5-3.6 3.3-10.5 1.3-11.2-.5-.2 1-1.9 3.5-3.7l4.5-3.4-3.2-4.6c-1.8-2.5-7.5-8.9-12.7-14.2-21-21.1-44.5-29.9-76-28.5-7.4.3-15.3.8-17.5 1.1l-4 .6 3.2-1.5c4.4-2 7.5-7.1 7.1-11.8-.3-3.3 0-3.9 2.9-5.5 1.8-1 3.3-1.9 3.3-2.1 0-1-7-13.8-10.6-19.5-5.9-9.2-19.2-22.7-27.8-28.4-12.6-8.4-23.9-12.2-50.1-17.1-3-.6-3.9-1-2.3-1.1 4.4-.2 10-8.5 8.5-12.5-.4-.9.3-1.6 1.8-2 2.3-.6 2.3-.6.9-6-8.4-32.2-27.4-55.2-57.5-69.6-4.6-2.2-7.3-3.7-5.9-3.3 3.2.9 13.5.5 18.1-.8 5.4-1.4 8.7-4.4 9.6-8.7.4-2 .6-4 .5-4.5-.1-.4.4-.7 1.2-.7 2.4 0 2.5-1.1 1-10-3.8-23.8-12.9-41.7-29.4-57.3-17.6-16.8-39.4-26.8-73.8-34.1-10.9-2.3-36.8-6.6-39.8-6.6-.8 0 .6 3.9 3.8 10.6zm81.5 105c-.3.3-1.2.4-1.9.1-.8-.3-.5-.6.6-.6 1.1-.1 1.7.2 1.3.5zM1254 461.7c-1.4.2-9.2 1.5-17.3 2.8-44.3 7.3-72.1 19-92.2 38.9-15.5 15.4-25.5 36.4-28.1 59.5-.6 5.3-.4 6.1 1 6.1.9 0 1.5.3 1.5.7-.9 5.9 3.1 11.4 9.7 13.2 4.9 1.3 16.1 1.7 19.4.7 1.4-.4-2.9 1.9-9.5 5.3-26.9 13.5-42.3 31.6-52 60.5-3.7 11.1-3.9 13.6-.8 13.6 1.2 0 1.4.3.6.8-.8.5-.8 1.7.2 4.5 1.8 5.4 5.2 8.7 8.9 8.8 1.7.1-1.6.9-7.3 2-34.6 6.1-55.2 18.5-72.1 43.4-4.8 7.1-11 18.6-11 20.4 0 .6 1.2 1.7 2.7 2.5 2.4 1.2 2.7 1.9 2.5 5.2-.3 4.9 2.7 10 7.1 12 3.1 1.4 3.1 1.4-2.3.6-3-.4-12.7-.7-21.5-.6-13 0-17.6.4-24.9 2.2-21.8 5.4-40.9 18.5-56 38.1l-4.9 6.4 4.4 3.8c2.4 2.1 3.8 3.9 3.2 3.9-2 0-1.5 6.9.7 10.5 3.8 6.2 18.8 14 33.8 17.7 11.6 2.9 32.8 3.1 45.2.4 19.5-4.2 45.3-15.7 66-29.5 13-8.5 16.8-14.2 12.4-18.5-1.4-1.4-.8-2.1 5.5-6.7 3.9-2.8 7.1-5.5 7.1-5.8 0-.4-2.1-1.4-4.7-2.3-2.7-.9-11.5-4.1-19.7-7.1l-15-5.5 6.5.5c19.1 1.5 48.5-8.9 71.3-25.1 17.5-12.6 37.2-30.6 39.5-36.3 1.7-4.1.7-8.7-1.6-7.9-.9.4 1.8-3.1 6-7.8l7.7-8.4-20.8-3.3c-18.3-3-20.1-3.5-15.7-4 10.5-1.3 25.1-8.4 40.1-19.6 22.4-16.7 53.1-55.2 51-63.9-.4-1.4-1.1-2.2-1.7-1.8-1.4.8.1-2 6.3-11.9 2.7-4.4 4.8-8 4.6-8.2-.6-.6-41.2 1.4-51.1 2.6-5.4.6-10.1.8-10.4.5-.4-.3.1-.6 1.1-.6 2.1 0 15-8.5 23.9-15.8 14.9-12.1 32.9-36 44.8-59.2 4-7.9 6.5-18.1 4-16.6-1.7 1.1-1.4.2 3.9-11.1 2.8-5.8 5-10.8 5-10.9 0-.5-3.5-.3-7 .3zm-77.3 114.9c-.3.3-1.2.4-1.9.1-.8-.3-.5-.6.6-.6 1.1-.1 1.7.2 1.3.5z"/><path d="M243.3 506.7c-25 32.7-39.4 61.3-43.9 87.6-1.3 7.3-1.5 13.3-1 29.4.4 11.1 1.1 22.8 1.7 26 1.4 7.8 7.2 18.6 13.4 25 4.4 4.6 5.6 5.3 8.9 5.3 5.5 0 10.1-2.6 17.8-9.8 11.7-11.1 21.4-25.9 25.6-39.2 2.1-6.6 4-16.5 3.9-21 0-1.4.6-7.6 1.3-13.8 2.1-17.1-.2-38.5-7-65.4-2.2-8.6-10.9-35.8-11.4-35.8-.2 0-4.4 5.3-9.3 11.7zM1022.2 511.7c-10.9 35.1-12.6 45-12.7 73-.1 12.2.3 21.9.7 21.7.5-.3.6.6.2 2-.3 1.4-.1 5.6.5 9.3 3.4 20 13 37.5 28.9 52.4 7.7 7.4 12.3 9.9 17.8 9.9 3.3 0 4.5-.7 8.9-5.4 7.2-7.6 12.2-17.4 13.5-26.7 1.9-13.6 1.9-14 .8-13.3-.6.4-.8-.1-.4-1.2 1.8-5.8 2.5-20.7 1.5-31.3-2.7-28.8-15.7-56.8-44.2-94.8-5.1-6.7-9.5-12.2-9.8-12.3-.3 0-2.9 7.5-5.7 16.7zM298.7 583.7c-21.1 42-29.4 73.9-26.7 102.2.5 5.2.6 10.8.3 12.4-.4 2-.3 2.8.5 2.4.6-.5.8 0 .5 1.3-.7 2.7 2.4 16.1 5.8 25.1 1.6 4.2 5.2 10.9 8 15 12.8 18.6 19.6 20.9 30.5 9.9 5.8-5.8 13.3-17.8 17.3-27.6 3.8-9.2 6.4-20.1 5.6-23.1-.4-1.8-.2-2.3.6-1.7.8.4.9.3.5-.4-.4-.6-.1-6 .5-12 2-18.2-1.3-39.2-9.7-62.2-3.7-9.9-22.1-47.7-25.3-51.9l-1.9-2.5-6.5 13.1zM966.2 586.2c-10 18.9-16 32.4-20.6 46.2-6.2 18.7-7 24-7.2 46.5-.1 11.6.2 19.8.7 19 .5-.9.6 0 .3 2.2-.8 4.8 2.8 18.3 7.5 28.5 9.2 19.5 21.1 31.9 29 29.9 12.4-3.1 29.1-32.7 30.6-54.2.2-3.4.9-9.1 1.5-12.5 3.3-20.7-.8-47.7-11.6-75.7-4.9-12.7-20.3-45.1-21.4-45.1-.4 0-4.4 6.9-8.8 15.2zM362.7 651.8c-3.5 23.3-4.1 29.4-4.1 47.2-.1 19.9.6 37.3 1.4 36 .3-.4.6 2 .7 5.4.4 13.7 8.5 36.1 18.1 50.3 8.9 13 30.5 30.3 37.9 30.3 4.4 0 10-5.1 13-11.8 3.3-7.5 6.6-20.9 5.8-23.9-.3-1.3-.2-2.2.3-2 .4.3.9-1.1.9-3.1.1-2 .5-9.2.8-15.9.5-7.8.3-14.5-.4-19-3-17.5-12.1-37.1-25.4-54.9-8.2-10.9-28.6-32.7-40.8-43.4l-6.6-6-1.6 10.8zM897.9 658.2c-17.6 17.5-26 27.2-34.8 40.2-15.8 23.4-23.1 49-20.3 71.3.7 5.2 1 9.8.7 10.3-1 1.6 2.6 18.3 5.5 25.9 6.5 16.8 13.6 18.8 28.6 8.2 14.2-10 24.2-22 32.1-38.7 4.6-9.8 9.7-27.3 9-31.1-.3-1.4 0-2 .6-1.6.7.4.8 0 .4-1.2-.4-.9 0-6.7.9-12.8 2.2-15.4 1.5-48.5-1.5-69.2-1.2-8.3-2.5-15.8-2.9-16.8-.6-1.5-3.8 1.1-18.3 15.5zM447 730.4c0 .3 1.4 4 3.1 8.3 5 12.5 6 15.5 4.7 14.7-.7-.5-.9 1-.6 4.9.5 6.2 8.4 23.6 18 39.7 16.2 27 37 47.1 58.2 55.9 15.9 6.6 36.7 9.3 44.8 5.8 3.9-1.7 7.3-6.7 6.5-9.7-.3-1.2.2-2 1.5-2.3 1.8-.5 1.9-1.1 1.3-7.4-4-40-22.2-67.1-57.3-85.1-17.7-9.2-35.5-15.1-63.2-21.3-7.4-1.6-14.3-3.2-15.2-3.5-1-.3-1.8-.3-1.8 0zM817.5 733.5c-69.6 15.8-103.2 39.1-116.5 80.7-4.3 13.6-6.5 33.8-3.6 33.8.9 0 1.2.7.9 1.9-.8 3.1 2.5 8.1 6.5 9.8 4.7 1.9 17.3 1.9 26.8-.1 36-7.6 64-34.2 87.8-83.6 5.7-12 7.1-16.1 6.7-20.8-.1-.7-.5-1-1.1-.7-1 .6-1 .4 2.9-9.3 1.2-2.8 3-7.5 4.1-10.2 1.1-2.8 1.6-5 1.2-4.9-.4 0-7.4 1.6-15.7 3.4zM398.2 824.4c-25.4 4.9-50.7 17.6-85.5 43.1l-9.9 7.4 3.3 1.4c1.9.8 5.2 2 7.4 2.7 2.2.7 3.5 1.5 2.8 1.7-1.8.6-2.7 6.7-1.4 9.2 1.7 3 9 6.4 21.6 9.9 49.6 13.9 86.5 11.6 115-7.3 16.8-11.1 27.3-25.3 22.5-30.1-.8-.8.3-3 3.4-7.2l4.5-6.1-7.7-5.7c-9.3-6.7-24.9-14.5-35.2-17.5-9.7-2.7-30.2-3.5-40.8-1.5z"/><path d="M847.5 824.6c-15.3 3.4-34.3 12.5-44.5 21.3l-4.2 3.6 4 5.6c2.9 3.9 3.8 5.9 3.1 7-2.7 4.3.1 10.7 8.4 18.9 12.4 12.4 30.2 21.8 48.7 25.7 12.1 2.5 37.4 2.3 53-.5 25.9-4.7 47-11.8 49.2-16.7 1.4-3.1.3-7.5-2-7.5-2.3-.1 4-3.4 9.6-5 2.3-.7 4.2-1.6 4.2-2.1 0-.7-18.6-14.3-31-22.6-20-13.3-36.8-21.1-57-26.4-10.4-2.8-32-3.4-41.5-1.3zM629.2 848.5c-10.6 5.4-15.8 18.5-11.8 29.7.8 2.2.9 3.5.3 3.1-1.5-.9-.1 8 1.9 12 4.2 8.3 11.2 12.7 20.4 12.7 9.1 0 16.2-4.4 20.3-12.5 1.9-4 3.3-12 1.8-11.1-.5.4-.3-1 .6-3.1 1.1-2.7 1.4-5.8 1.1-11.1-.6-8.5-3.5-13.6-10.6-18.7-3.7-2.5-5.4-3-11.5-3.3-6.2-.3-7.9 0-12.5 2.3zM520.5 867c-11.3 2.6-16.6 4.5-28 10-16.9 8.1-35.3 21-56.4 39.4l-11.4 10 6.6 2.1c5.5 1.6 6.5 2.3 5.7 3.5-1.7 2.7-1.1 7 1.4 9.5 3 3 9.5 4.9 27.6 8.2 12.6 2.3 17.3 2.6 36 2.7 18.7 0 22.7-.2 30.7-2.1 19.2-4.6 34.3-12.5 47.5-25.1 4.2-4.1 9.1-9.6 10.8-12.2 2.7-4.1 3.1-5.7 2.8-10.2-.2-4.7.2-6 3.5-11.2 4.4-6.7 4.9-5.8-6.9-12.6-9.7-5.6-22.4-10.5-31.6-12.4-10.4-2.1-28-2-38.3.4zM722 866.4c-3 .7-8 2.1-11 3.1-6.1 2-25.2 11.5-29 14.4l-2.4 1.9 3.9 6.4c5 8.3 5 8.2 3.7 7.4-.9-.5-1.2.7-1.2 4 0 6.2 3.6 11.9 13.8 21.6 13.2 12.6 28.3 20.5 47.5 25.1 8 1.9 12 2.1 30.7 2.1 18.7-.1 23.4-.4 36-2.7 18.1-3.3 24.6-5.2 27.6-8.2 2.7-2.8 3.3-8.2.9-9.1-2.5-1-.9-2 6-3.9 3.6-.9 6.5-2.1 6.3-2.5-.2-.4-4.6-4.4-9.8-9-33.6-29.5-61.4-45.5-87.8-50.6-8.8-1.7-27.5-1.7-35.2 0z"/></svg>